<svg id="Landing" xmlns="http://www.w3.org/2000/svg" viewBox="0 0 53.24 53.28"><title>email black fill</title><path d="M700.12,1496.58h2.29a1.24,1.24,0,0,0,.24.08c1.2,0.15,2.42.23,3.6,0.45a26.58,26.58,0,1,1-16.45,50.09c-8.44-4.1-13.35-11-14.87-20.22-0.14-.83-0.21-1.68-0.31-2.52s0-1.66,0-2.5c0-.22.08-0.44,0.11-0.66,0.09-.76.13-1.52,0.26-2.27a26.62,26.62,0,0,1,22.46-22.13C698.34,1496.78,699.23,1496.69,700.12,1496.58Zm-13.34,17.17c0.15,0.16.2,0.23,0.27,0.28l13.89,11.43a0.43,0.43,0,0,0,.66,0l13.79-11.31c0.11-.09.19-0.2,0.35-0.36h-29Zm28.45,19c-0.2-.18-0.3-0.27-0.4-0.35q-5.1-3.64-10.19-7.28a0.52,0.52,0,0,0-.76,0c-0.86.73-1.73,1.43-2.62,2.15-1-.84-2-1.64-3-2.47a0.51,0.51,0,0,0-.76,0q-5.29,3.81-10.61,7.59a4.84,4.84,0,0,0-.38.35h28.71Zm1.93-.23v-18.23L705.35,1524Zm-31.71-18.16v17.52l11.35-8.22Z" transform="translate(-674.63 -1496.58)"/></svg>