<svg id="Past_window" data-name="Past window" xmlns="http://www.w3.org/2000/svg" viewBox="0 0 18.36 35.31"><title>facebook black</title><path d="M2258.47,4418c0-.06,0-0.11,0-0.17q0-7.87,0-15.75V4402h-5.26c-0.16,0-.16,0-0.16-0.16q0-3,0-6c0-.15,0-0.15.16-0.15h5.11c0.15,0,.15,0,0.15-0.15,0-1.55,0-3.1,0-4.66a9.9,9.9,0,0,1,.52-3.17,6.91,6.91,0,0,1,2.73-3.62,7.64,7.64,0,0,1,2.71-1.11,9.45,9.45,0,0,1,2.07-.21c0.88,0,1.77,0,2.65.07,0.72,0,1.43.11,2.14,0.16a0.1,0.1,0,0,1,.11.12q0,2.7,0,5.41a0.1,0.1,0,0,1-.12.12h-3.13a5.74,5.74,0,0,0-1.47.16,2.09,2.09,0,0,0-1.64,1.85,7.58,7.58,0,0,0-.08,1.06c0,1.28,0,2.56,0,3.84,0,0.11,0,.13.14,0.13h6.08c0,0.14,0,.27,0,0.39l-0.31,2.41-0.35,2.65c0,0.24-.06.48-0.09,0.72a0.12,0.12,0,0,1-.14.13H2265v0.15q0,7.89,0,15.78c0,0.05,0,.1,0,0.16h-6.49Z" transform="translate(-2253.04 -4382.73)"/></svg>