<svg id="Past_window" data-name="Past window" xmlns="http://www.w3.org/2000/svg" viewBox="0 0 28.18 24.82"><title>twitter black</title><path d="M2395.25,4389.29c0,1.27-1,1.71-1.22,2.54,0.49,1,1.3-.46,1.87.42a8.84,8.84,0,0,0-2.65,5.45c-1.47,12.7-15,19.71-25.52,13.17,2.63-.65,5.32-0.65,7.49-2.57-1.79-1.18-4.14-1.72-4.66-4.22a7.54,7.54,0,0,1,1.45-.65c-2.09-1.26-3.79-2.84-3.81-5.4,0-1.09,1.26.32,1.71-.58-1.62-2.17-2.49-4.57-1-7.53,2.88,2.65,5.84,5.07,9.76,5.94,1.88,0.42,2.51.31,2.73-1.92,0.4-4,4.63-6.56,8-4.87C2391.4,4390.09,2393.18,4390.52,2395.25,4389.29Z" transform="translate(-2367.73 -4388.54)"/></svg>