<svg id="Past_window" data-name="Past window" xmlns="http://www.w3.org/2000/svg" viewBox="0 0 132.58 76.04"><defs><style>.cls-1{fill:#868786;}.cls-2{fill:#353df5;}</style></defs><title>blue logo</title><path d="M1401.37,1818.47c0-1.31-.87-2.66-3.33-2.66h-2.5v9.47h1.85v-3.86l2.39,3.86h2.28l-2.61-4.23A2.76,2.76,0,0,0,1401.37,1818.47Zm-2.08.09a1,1,0,0,1-1.08.95h-0.82v-1.85h0.78A1,1,0,0,1,1399.29,1818.55Z" transform="translate(-1372.27 -1782.33)"/><polygon points="35.27 38.79 37.58 38.79 37.58 36.94 35.27 36.94 35.27 35.32 39.2 35.32 39.2 33.48 33.43 33.48 33.43 42.94 39.43 42.94 39.43 40.86 35.27 40.86 35.27 38.79"/><path d="M1419.06,1817.5a2.29,2.29,0,0,1,1.87.86l0.23,0.28,0.26-.26,0.42-.39,0.44-.42,0.2-.2-0.17-.23a3.79,3.79,0,0,0-3.3-1.59c-2.53,0-4.37,2.07-4.37,4.92s1.78,4.91,4.34,4.91a3.85,3.85,0,0,0,3.3-1.5l0.17-.22-0.18-.2-0.33-.35-0.48-.52-0.26-.3-0.25.31a2.25,2.25,0,0,1-1.85.84c-1.15,0-2.31-.92-2.31-3S1418,1817.5,1419.06,1817.5Z" transform="translate(-1372.27 -1782.33)"/><path d="M1429.2,1815.54a4.61,4.61,0,0,0-4.48,4.91c0,2.85,1.88,4.92,4.48,4.92s4.49-2.07,4.49-4.92A4.61,4.61,0,0,0,1429.2,1815.54Zm0,7.95c-1.41,0-2.32-1.19-2.32-3s0.87-2.95,2.32-2.95,2.34,1.1,2.34,2.95S1430.64,1823.49,1429.2,1823.49Z" transform="translate(-1372.27 -1782.33)"/><path d="M1441.48,1821.67c-1.39-1.9-2.64-3.8-4-5.76l-0.14-.1h-1.65v9.47h1.85v-5.61l3.81,5.61h2v-9.47h-1.85v5.86Z" transform="translate(-1372.27 -1782.33)"/><polygon points="76.37 38.79 78.91 38.79 78.91 36.94 76.37 36.94 76.37 35.32 80.06 35.32 80.06 33.48 74.29 33.48 74.29 42.94 80.3 42.94 80.3 40.86 76.37 40.86 76.37 38.79"/><path d="M1459,1819.46l-0.15-.09c-0.81-.48-1.26-0.78-1.26-1.25a0.72,0.72,0,0,1,.83-0.67,1.33,1.33,0,0,1,1.24.83l0.15,0.44,0.36-.29,0.91-.69,0.2-.15-0.09-.23a2.88,2.88,0,0,0-2.66-1.81,2.68,2.68,0,0,0-3,2.68c0,1.37.83,2.15,2.25,3,0.9,0.55,1.45.92,1.45,1.46a0.8,0.8,0,0,1-.84.76,1.9,1.9,0,0,1-1.66-1l-0.2-.31-0.53.45c-0.25.21-.5,0.41-0.74,0.64l-0.19.18,0.13,0.23a3.4,3.4,0,0,0,3,1.78c1.92,0,3.07-1,3.07-2.79C1461.33,1821,1460.17,1820.2,1459,1819.46Z" transform="translate(-1372.27 -1782.33)"/><path d="M1468.9,1819.46l-0.15-.09c-0.81-.48-1.26-0.78-1.26-1.25a0.72,0.72,0,0,1,.83-0.67,1.33,1.33,0,0,1,1.24.83l0.15,0.44,0.36-.29,0.91-.69,0.2-.15-0.09-.23a2.88,2.88,0,0,0-2.66-1.81,2.68,2.68,0,0,0-3,2.68c0,1.37.83,2.15,2.25,3,0.9,0.55,1.45.92,1.45,1.46a0.8,0.8,0,0,1-.84.76,1.9,1.9,0,0,1-1.66-1l-0.2-.31-0.54.46c-0.25.21-.49,0.41-0.73,0.63l-0.19.18,0.13,0.23a3.4,3.4,0,0,0,3,1.78c1.92,0,3.07-1,3.07-2.79C1471.24,1821.19,1470.34,1820.36,1468.9,1819.46Z" transform="translate(-1372.27 -1782.33)"/><polygon points="104.77 40.86 104.77 38.79 107.08 38.79 107.08 36.94 104.77 36.94 104.77 35.32 108.69 35.32 108.69 33.48 102.69 33.48 102.69 42.94 108.69 42.94 108.69 40.86 104.77 40.86"/><path class="cls-1" d="M1420.15,1837.17c-0.07,0,0-.06,0-0.13v-4.84c0-.07,0-0.11,0-0.11h1.56c1.28,0,1.64.49,1.64,1.08v2.89c0,0.6-.36,1.11-1.64,1.11h-1.57Zm0.43-4.62v4.16h1.13c0.83,0,1.17-.3,1.17-0.73v-2.72c0-.43-0.35-0.7-1.17-0.7h-1.13Z" transform="translate(-1372.27 -1782.33)"/><path class="cls-1" d="M1427.08,1832.19l1.55,4.85a0.08,0.08,0,0,1-.09.12h-0.33a0.11,0.11,0,0,1-.14-0.09l-0.42-1.3h-1.77l-0.42,1.3a0.11,0.11,0,0,1-.13.09H1425a0.08,0.08,0,0,1-.08-0.12l1.54-4.84a0.14,0.14,0,0,1,.15-0.11h0.33A0.13,0.13,0,0,1,1427.08,1832.19Zm-0.12,1.36c-0.08-.24-0.18-0.83-0.19-0.91a7.86,7.86,0,0,1-.19.9l-0.57,1.77h1.52Z" transform="translate(-1372.27 -1782.33)"/><path class="cls-1" d="M1432.6,1832.09c0.08,0,.22,0,0.22.11v0.23a0.22,0.22,0,0,1-.22.13h-1.39V1837c0,0.07,0,.13,0,0.13h-0.33c-0.09,0-.08-0.06-0.08-0.13v-4.48h-1.36c-0.09,0,0,0,0-.13v-0.23c0-.08-0.06-0.11,0-0.11h3.21Z" transform="translate(-1372.27 -1782.33)"/><path class="cls-1" d="M1435.58,1832.19l1.55,4.85a0.08,0.08,0,0,1-.09.12h-0.33a0.11,0.11,0,0,1-.14-0.09l-0.43-1.3h-1.77l-0.42,1.3a0.11,0.11,0,0,1-.13.09h-0.31a0.08,0.08,0,0,1-.09-0.12l1.54-4.84a0.14,0.14,0,0,1,.15-0.11h0.33A0.13,0.13,0,0,1,1435.58,1832.19Zm-0.12,1.36c-0.08-.24-0.18-0.83-0.19-0.91a7.9,7.9,0,0,1-.19.9l-0.57,1.77H1436Z" transform="translate(-1372.27 -1782.33)"/><path class="cls-1" d="M1438.88,1837.17c-0.08,0-.05-0.06-0.05-0.13v-4.84c0-.07,0-0.11.05-0.11h1.33c1.28,0,1.62.45,1.62,1v0.49a0.86,0.86,0,0,1-.69.88,1,1,0,0,1,.92.92v0.66c0,0.6-.36,1.09-1.64,1.09h-1.54Zm0.41-4.62v1.85h1a0.88,0.88,0,0,0,1.08-.79v-0.4c0-.44-0.34-0.66-1.16-0.66h-0.92Zm0,2.31v1.85h1.13c0.83,0,1.18-.28,1.18-0.71v-0.55c0-.41-0.35-0.58-1.18-0.58h-1.13Z" transform="translate(-1372.27 -1782.33)"/><path class="cls-1" d="M1445.64,1832.19l1.55,4.85a0.08,0.08,0,0,1-.09.12h-0.33a0.11,0.11,0,0,1-.14-0.09l-0.43-1.3h-1.77l-0.42,1.3a0.11,0.11,0,0,1-.13.09h-0.31a0.08,0.08,0,0,1-.09-0.12l1.54-4.84a0.14,0.14,0,0,1,.15-0.11h0.33A0.13,0.13,0,0,1,1445.64,1832.19Zm-0.12,1.36c-0.08-.24-0.18-0.83-0.19-0.91a7.9,7.9,0,0,1-.19.9l-0.57,1.77h1.52Z" transform="translate(-1372.27 -1782.33)"/><path class="cls-1" d="M1450.26,1832.47c-0.81,0-1,.28-1,0.71v0.22a0.56,0.56,0,0,0,.39.58l1.4,0.53a1,1,0,0,1,.75,1v0.64c0,0.6-.36,1.09-1.62,1.09s-1.62-.49-1.62-1.09v-0.41c0-.08,0-0.16.08-0.16h0.32c0.08,0,.06.07,0.06,0.16V1836c0,0.43.33,0.71,1.15,0.71s1.16-.28,1.16-0.71v-0.46a0.78,0.78,0,0,0-.66-0.66l-1.41-.51a1,1,0,0,1-.7-0.89v-0.42c0-.6.38-1.09,1.61-1.09s1.62,0.49,1.62,1.09v0.35c0,0.07,0,0-.1,0h-0.32c-0.08,0,0,.06,0,0v-0.28C1451.29,1832.74,1451.06,1832.47,1450.26,1832.47Z" transform="translate(-1372.27 -1782.33)"/><path class="cls-1" d="M1453.89,1837.17c-0.07,0-.06-0.06-0.06-0.13v-4.84c0-.07,0-0.11.07-0.11h2.63c0.08,0,.07,0,0.07.11v0.23c0,0.08,0,.13-0.07.13h-2.24v1.62h2.1a0.28,0.28,0,0,1,.21.22v0.22c0,0.08-.12,0-0.21,0h-2.1v2.08h2.33c0.08,0,.21,0,0.21.09V1837a0.2,0.2,0,0,1-.21.13h-2.74Z" transform="translate(-1372.27 -1782.33)"/><path class="cls-2" d="M1390.87,1801.57a68.38,68.38,0,0,1,47.61-19.24h0.19a68.55,68.55,0,0,1,47.28,18.84l-4.72,4.75a61.93,61.93,0,0,0-42.56-16.89h-0.17a61.8,61.8,0,0,0-42.92,17.29Z" transform="translate(-1372.27 -1782.33)"/><rect class="cls-2" x="1496.73" y="1816.98" width="6.73" height="6.73" transform="translate(-2220.08 -188.44) rotate(-45)"/><rect class="cls-2" x="1373.6" y="1817.13" width="6.45" height="6.45" transform="translate(-2256.19 -275.6) rotate(-45)"/><path class="cls-2" d="M1438.37,1858.37a68.06,68.06,0,0,1-47.34-19l4.67-4.67a61.85,61.85,0,0,0,85.36,0l4.67,4.67A68.06,68.06,0,0,1,1438.37,1858.37Z" transform="translate(-1372.27 -1782.33)"/></svg>