<svg id="Past_window" data-name="Past window" xmlns="http://www.w3.org/2000/svg" viewBox="0 0 132.58 76.04"><defs><style>.cls-1{fill:#fff;}</style></defs><title>white logo</title><path class="cls-1" d="M58.56,1819.34c0-1.31-.87-2.66-3.33-2.66h-2.5v9.47h1.85v-3.86l2.39,3.86h2.28l-2.61-4.23A2.76,2.76,0,0,0,58.56,1819.34Zm-2.08.09a1,1,0,0,1-1.08.95H54.57v-1.85h0.78A1,1,0,0,1,56.47,1819.43Z" transform="translate(-29.46 -1783.21)"/><polygon class="cls-1" points="35.27 38.79 37.58 38.79 37.58 36.94 35.27 36.94 35.27 35.32 39.2 35.32 39.2 33.48 33.43 33.48 33.43 42.94 39.43 42.94 39.43 40.86 35.27 40.86 35.27 38.79"/><path class="cls-1" d="M76.24,1818.37a2.29,2.29,0,0,1,1.87.86l0.23,0.28,0.26-.26,0.42-.39,0.44-.42,0.2-.2-0.17-.23a3.79,3.79,0,0,0-3.3-1.59c-2.53,0-4.37,2.07-4.37,4.92s1.78,4.91,4.34,4.91a3.85,3.85,0,0,0,3.3-1.5l0.17-.22-0.18-.2-0.33-.35-0.48-.52-0.26-.3-0.25.31a2.25,2.25,0,0,1-1.85.84c-1.15,0-2.31-.92-2.31-3S75.15,1818.37,76.24,1818.37Z" transform="translate(-29.46 -1783.21)"/><path class="cls-1" d="M86.39,1816.42a4.61,4.61,0,0,0-4.48,4.91c0,2.85,1.88,4.92,4.48,4.92s4.49-2.07,4.49-4.92A4.61,4.61,0,0,0,86.39,1816.42Zm0,7.95c-1.41,0-2.32-1.19-2.32-3s0.87-2.95,2.32-2.95,2.34,1.1,2.34,2.95S87.83,1824.36,86.39,1824.36Z" transform="translate(-29.46 -1783.21)"/><path class="cls-1" d="M98.67,1822.55c-1.39-1.9-2.64-3.8-4-5.76l-0.14-.1H92.9v9.47h1.85v-5.61l3.81,5.61h2v-9.47H98.67v5.86Z" transform="translate(-29.46 -1783.21)"/><polygon class="cls-1" points="76.37 38.79 78.91 38.79 78.91 36.94 76.37 36.94 76.37 35.32 80.06 35.32 80.06 33.48 74.29 33.48 74.29 42.94 80.3 42.94 80.3 40.86 76.37 40.86 76.37 38.79"/><path class="cls-1" d="M116.17,1820.34l-0.15-.09c-0.81-.48-1.26-0.78-1.26-1.25a0.72,0.72,0,0,1,.83-0.67,1.33,1.33,0,0,1,1.24.83l0.15,0.44,0.36-.29,0.91-.69,0.2-.15-0.09-.23a2.88,2.88,0,0,0-2.66-1.81,2.68,2.68,0,0,0-3,2.68c0,1.37.83,2.15,2.25,3,0.9,0.55,1.45.92,1.45,1.46a0.8,0.8,0,0,1-.84.76,1.9,1.9,0,0,1-1.66-1l-0.2-.31-0.53.45c-0.25.21-.5,0.41-0.74,0.64l-0.19.18,0.13,0.23a3.4,3.4,0,0,0,3,1.78c1.92,0,3.07-1,3.07-2.79C118.51,1821.91,117.36,1821.07,116.17,1820.34Z" transform="translate(-29.46 -1783.21)"/><path class="cls-1" d="M126.08,1820.34l-0.15-.09c-0.81-.48-1.26-0.78-1.26-1.25a0.72,0.72,0,0,1,.83-0.67,1.33,1.33,0,0,1,1.24.83l0.15,0.44,0.36-.29,0.91-.69,0.2-.15-0.09-.23a2.88,2.88,0,0,0-2.66-1.81,2.68,2.68,0,0,0-3,2.68c0,1.37.83,2.15,2.25,3,0.9,0.55,1.45.92,1.45,1.46a0.8,0.8,0,0,1-.84.76,1.9,1.9,0,0,1-1.66-1l-0.2-.31-0.54.46c-0.25.21-.49,0.41-0.73,0.63l-0.19.18,0.13,0.23a3.4,3.4,0,0,0,3,1.78c1.92,0,3.07-1,3.07-2.79C128.43,1822.06,127.53,1821.23,126.08,1820.34Z" transform="translate(-29.46 -1783.21)"/><polygon class="cls-1" points="104.77 40.86 104.77 38.79 107.08 38.79 107.08 36.94 104.77 36.94 104.77 35.32 108.69 35.32 108.69 33.48 102.69 33.48 102.69 42.94 108.69 42.94 108.69 40.86 104.77 40.86"/><path class="cls-1" d="M77.34,1838c-0.07,0,0-.06,0-0.13v-4.84c0-.07,0-0.11,0-0.11h1.56c1.28,0,1.64.49,1.64,1.08v2.89c0,0.6-.36,1.11-1.64,1.11H77.34Zm0.43-4.62v4.16h1.13c0.83,0,1.17-.3,1.17-0.73v-2.72c0-.43-0.35-0.7-1.17-0.7H77.78Z" transform="translate(-29.46 -1783.21)"/><path class="cls-1" d="M84.27,1833.07l1.55,4.85a0.08,0.08,0,0,1-.09.12H85.39a0.11,0.11,0,0,1-.14-0.09l-0.42-1.3H83.06l-0.42,1.3a0.11,0.11,0,0,1-.13.09H82.2a0.08,0.08,0,0,1-.08-0.12l1.54-4.84a0.14,0.14,0,0,1,.15-0.11h0.33A0.13,0.13,0,0,1,84.27,1833.07Zm-0.12,1.36c-0.08-.24-0.18-0.83-0.19-0.91a7.87,7.87,0,0,1-.19.9l-0.57,1.77h1.52Z" transform="translate(-29.46 -1783.21)"/><path class="cls-1" d="M89.79,1833c0.08,0,.22,0,0.22.11v0.23a0.22,0.22,0,0,1-.22.13H88.4v4.48c0,0.07,0,.13,0,0.13H88c-0.09,0-.08-0.06-0.08-0.13v-4.48H86.57c-0.09,0,0,0,0-.13v-0.23c0-.08-0.06-0.11,0-0.11h3.21Z" transform="translate(-29.46 -1783.21)"/><path class="cls-1" d="M92.76,1833.07l1.55,4.85a0.08,0.08,0,0,1-.09.12H93.88a0.11,0.11,0,0,1-.14-0.09l-0.43-1.3H91.55l-0.42,1.3a0.11,0.11,0,0,1-.13.09H90.69a0.08,0.08,0,0,1-.09-0.12l1.54-4.84a0.14,0.14,0,0,1,.15-0.11h0.33A0.13,0.13,0,0,1,92.76,1833.07Zm-0.12,1.36c-0.08-.24-0.18-0.83-0.19-0.91a7.9,7.9,0,0,1-.19.9l-0.57,1.77H93.2Z" transform="translate(-29.46 -1783.21)"/><path class="cls-1" d="M96.07,1838C96,1838,96,1838,96,1837.9v-4.84c0-.07,0-0.11.05-0.11H97.4c1.28,0,1.62.45,1.62,1v0.49a0.86,0.86,0,0,1-.69.88,1,1,0,0,1,.92.92v0.66c0,0.6-.36,1.09-1.64,1.09H96.07Zm0.41-4.62v1.85h1a0.88,0.88,0,0,0,1.08-.79v-0.4c0-.44-0.34-0.66-1.16-0.66H96.48Zm0,2.31v1.85h1.13c0.83,0,1.18-.28,1.18-0.71v-0.55c0-.41-0.35-0.58-1.18-0.58H96.48Z" transform="translate(-29.46 -1783.21)"/><path class="cls-1" d="M102.83,1833.07l1.55,4.85a0.08,0.08,0,0,1-.09.12h-0.33a0.11,0.11,0,0,1-.14-0.09l-0.43-1.3h-1.77l-0.42,1.3a0.11,0.11,0,0,1-.13.09h-0.31a0.08,0.08,0,0,1-.09-0.12l1.54-4.84a0.14,0.14,0,0,1,.15-0.11h0.33A0.13,0.13,0,0,1,102.83,1833.07Zm-0.12,1.36c-0.08-.24-0.18-0.83-0.19-0.91a7.9,7.9,0,0,1-.19.9l-0.57,1.77h1.52Z" transform="translate(-29.46 -1783.21)"/><path class="cls-1" d="M107.45,1833.34c-0.81,0-1,.28-1,0.71v0.22a0.56,0.56,0,0,0,.39.58l1.4,0.53a1,1,0,0,1,.75,1V1837c0,0.6-.36,1.09-1.62,1.09s-1.62-.49-1.62-1.09v-0.41c0-.08,0-0.16.08-0.16h0.32c0.08,0,.06.07,0.06,0.16v0.34c0,0.43.33,0.71,1.15,0.71s1.16-.28,1.16-0.71v-0.46a0.78,0.78,0,0,0-.66-0.66l-1.41-.51a1,1,0,0,1-.7-0.89V1834c0-.6.38-1.09,1.61-1.09s1.62,0.49,1.62,1.09v0.35c0,0.07,0,0-.1,0h-0.32c-0.08,0,0,.06,0,0V1834C108.48,1833.62,108.25,1833.34,107.45,1833.34Z" transform="translate(-29.46 -1783.21)"/><path class="cls-1" d="M111.08,1838c-0.07,0-.06-0.06-0.06-0.13v-4.84c0-.07,0-0.11.07-0.11h2.63c0.08,0,.07,0,0.07.11v0.23c0,0.08,0,.13-0.07.13h-2.24V1835h2.1a0.28,0.28,0,0,1,.21.22v0.22c0,0.08-.12,0-0.21,0h-2.1v2.08h2.33c0.08,0,.21,0,0.21.09v0.24a0.2,0.2,0,0,1-.21.13h-2.74Z" transform="translate(-29.46 -1783.21)"/><path class="cls-1" d="M48.05,1802.45a68.38,68.38,0,0,1,47.61-19.24h0.19A68.55,68.55,0,0,1,143.14,1802l-4.72,4.75a61.93,61.93,0,0,0-42.56-16.89H95.69a61.8,61.8,0,0,0-42.92,17.29Z" transform="translate(-29.46 -1783.21)"/><rect class="cls-1" x="153.91" y="1817.86" width="6.73" height="6.73" transform="translate(-1271.19 -1138.57) rotate(-45)"/><rect class="cls-1" x="30.79" y="1818" width="6.45" height="6.45" transform="translate(-1307.29 -1225.73) rotate(-45)"/><path class="cls-1" d="M95.56,1859.25a68.06,68.06,0,0,1-47.34-19l4.67-4.67a61.85,61.85,0,0,0,85.36,0l4.67,4.67A68.06,68.06,0,0,1,95.56,1859.25Z" transform="translate(-29.46 -1783.21)"/></svg>